<svg width="260" height="200" viewBox="0 0 260 200" fill="none" xmlns="http://www.w3.org/2000/svg">
  <defs>
    <linearGradient id="bl-case" x1="60" y1="80" x2="200" y2="170" gradientUnits="userSpaceOnUse"><stop stop-color="#5B8DEF"/><stop offset="1" stop-color="#3358D4"/></linearGradient>
    <linearGradient id="bl-cash" x1="0" y1="0" x2="0" y2="1"><stop stop-color="#34C77B"/><stop offset="1" stop-color="#0E9F58"/></linearGradient>
  </defs>
  <ellipse cx="130" cy="180" rx="94" ry="14" fill="#000" opacity="0.08"/>
  <!-- briefcase -->
  <path d="M104 84 h52 a7 7 0 0 1 7 7 v7 h-66 v-7 a7 7 0 0 1 7 -7z" fill="#2C4ABF"/>
  <rect x="68" y="96" width="124" height="72" rx="14" fill="url(#bl-case)"/>
  <rect x="68" y="96" width="124" height="20" rx="10" fill="#fff" opacity="0.18"/>
  <!-- cash poking out -->
  <g>
    <rect x="100" y="80" width="60" height="22" rx="3" fill="url(#bl-cash)"/>
    <rect x="100" y="88" width="60" height="5" fill="#fff" opacity="0.55"/>
    <circle cx="130" cy="91" r="6" fill="#fff" opacity="0.85"/>
  </g>
  <!-- percent badge -->
  <circle cx="178" cy="78" r="22" fill="#FFC75A"/>
  <g stroke="#fff" stroke-width="4.5" stroke-linecap="round"><line x1="170" y1="86" x2="186" y2="70"/></g>
  <circle cx="170" cy="72" r="4" fill="#fff"/><circle cx="186" cy="84" r="4" fill="#fff"/>
  <rect x="120" y="132" width="20" height="14" rx="3" fill="#26379E"/>
</svg>
